<?xml version="1.0" encoding="UTF-8" standalone="no"?>
<!DOCTYPE svg PUBLIC "-//W3C//DTD SVG 1.1//EN"
 "http://www.w3.org/Graphics/SVG/1.1/DTD/svg11.dtd">
<!-- Generated by graphviz version 2.38.0 (20140413.2041)
 -->
<!-- Title: output Pages: 1 -->
<svg width="613pt" height="971pt"
 viewBox="0.00 0.00 613.00 971.00" xmlns="http://www.w3.org/2000/svg" xmlns:xlink="http://www.w3.org/1999/xlink">
<g id="graph0" class="graph" transform="scale(1 1) rotate(0) translate(4 967)">
<title>output</title>
<polygon fill="white" stroke="none" points="-4,4 -4,-967 609,-967 609,4 -4,4"/>
<!-- Legend -->
<g id="node1" class="node"><title>Legend</title>
<polygon fill="#e0e0e0" stroke="none" points="8.5,-908.5 8.5,-931.5 209.5,-931.5 209.5,-908.5 8.5,-908.5"/>
<polygon fill="none" stroke="black" points="8.5,-908.5 8.5,-931.5 209.5,-931.5 209.5,-908.5 8.5,-908.5"/>
<text text-anchor="start" x="93" y="-916.3" font-family="Times,serif" font-size="14.00">Layer</text>
<polygon fill="#88ffff" stroke="none" points="8.5,-870.5 8.5,-908.5 89.5,-908.5 89.5,-870.5 8.5,-870.5"/>
<polygon fill="none" stroke="black" points="8.5,-870.5 8.5,-908.5 89.5,-908.5 89.5,-870.5 8.5,-870.5"/>
<text text-anchor="start" x="12.5" y="-893.3" font-family="Times,serif" font-size="14.00"> Complexity </text>
<text text-anchor="start" x="15" y="-878.3" font-family="Times,serif" font-size="14.00"> (MFLOPs) </text>
<polygon fill="#ff88ff" stroke="none" points="89.5,-870.5 89.5,-908.5 164.5,-908.5 164.5,-870.5 89.5,-870.5"/>
<polygon fill="none" stroke="black" points="89.5,-870.5 89.5,-908.5 164.5,-908.5 164.5,-870.5 89.5,-870.5"/>
<text text-anchor="start" x="93.5" y="-893.3" font-family="Times,serif" font-size="14.00"> Bandwidth </text>
<text text-anchor="start" x="103" y="-878.3" font-family="Times,serif" font-size="14.00"> (MB/s) </text>
<polygon fill="#ffff88" stroke="none" points="164.5,-870.5 164.5,-908.5 209.5,-908.5 209.5,-870.5 164.5,-870.5"/>
<polygon fill="none" stroke="black" points="164.5,-870.5 164.5,-908.5 209.5,-908.5 209.5,-870.5 164.5,-870.5"/>
<text text-anchor="start" x="168.5" y="-893.3" font-family="Times,serif" font-size="14.00"> Time </text>
<text text-anchor="start" x="172" y="-878.3" font-family="Times,serif" font-size="14.00"> (ms)</text>
</g>
<!-- Input -->
<g id="node2" class="node"><title>Input</title>
<ellipse fill="none" stroke="black" cx="310.5" cy="-901.5" rx="75.2868" ry="18"/>
<text text-anchor="middle" x="310.5" y="-897.8" font-family="Times,serif" font-size="14.00">input: (80, 160, 1)</text>
</g>
<!-- data -->
<g id="node3" class="node"><title>data</title>
<polygon fill="#a3a3a3" stroke="none" points="112.5,-649 112.5,-672 295.5,-672 295.5,-649 112.5,-649"/>
<polygon fill="none" stroke="black" points="112.5,-649 112.5,-672 295.5,-672 295.5,-649 112.5,-649"/>
<text text-anchor="start" x="192.5" y="-656.8" font-family="Times,serif" font-size="14.00">data</text>
<polygon fill="#dddddd" stroke="none" points="112.5,-626 112.5,-649 295.5,-649 295.5,-626 112.5,-626"/>
<polygon fill="none" stroke="black" points="112.5,-626 112.5,-649 295.5,-649 295.5,-626 112.5,-626"/>
<text text-anchor="start" x="171.5" y="-633.8" font-family="Times,serif" font-size="14.00">(1, 80, 160)</text>
<polygon fill="#b1f1ef" stroke="none" points="112.5,-588 112.5,-626 188.5,-626 188.5,-588 112.5,-588"/>
<polygon fill="none" stroke="black" points="112.5,-588 112.5,-626 188.5,-626 188.5,-588 112.5,-588"/>
<text text-anchor="start" x="138" y="-610.8" font-family="Times,serif" font-size="14.00"> 0.0 </text>
<text text-anchor="start" x="116.5" y="-595.8" font-family="Times,serif" font-size="14.00"> (MFLOPs) </text>
<polygon fill="#b2189e" stroke="none" points="188.5,-588 188.5,-626 255.5,-626 255.5,-588 188.5,-588"/>
<polygon fill="none" stroke="black" points="188.5,-588 188.5,-626 255.5,-626 255.5,-588 188.5,-588"/>
<text text-anchor="start" x="192.5" y="-610.8" font-family="Times,serif" font-size="14.00"> 10989.93 </text>
<text text-anchor="start" x="198" y="-595.8" font-family="Times,serif" font-size="14.00"> (MB/s) </text>
<polygon fill="#ffffcc" stroke="none" points="255.5,-588 255.5,-626 295.5,-626 295.5,-588 255.5,-588"/>
<polygon fill="none" stroke="black" points="255.5,-588 255.5,-626 295.5,-626 295.5,-588 255.5,-588"/>
<text text-anchor="start" x="259.5" y="-610.8" font-family="Times,serif" font-size="14.00"> 0.00 </text>
<text text-anchor="start" x="260.5" y="-595.8" font-family="Times,serif" font-size="14.00"> (ms)</text>
</g>
<!-- Input&#45;&gt;data -->
<g id="edge1" class="edge"><title>Input&#45;&gt;data</title>
<path fill="none" stroke="black" d="M303.644,-883.232C288.123,-844.139 249.747,-747.482 225.262,-685.812"/>
<polygon fill="black" stroke="black" points="228.4,-684.231 221.457,-676.229 221.894,-686.815 228.4,-684.231"/>
</g>
<!-- conv_1_relu -->
<g id="node4" class="node"><title>conv_1_relu</title>
<polygon fill="#a3a3a3" stroke="none" points="306.5,-777 306.5,-800 482.5,-800 482.5,-777 306.5,-777"/>
<polygon fill="none" stroke="black" points="306.5,-777 306.5,-800 482.5,-800 482.5,-777 306.5,-777"/>
<text text-anchor="start" x="360.5" y="-784.8" font-family="Times,serif" font-size="14.00">conv_1_relu</text>
<polygon fill="#dddddd" stroke="none" points="306.5,-754 306.5,-777 482.5,-777 482.5,-754 306.5,-754"/>
<polygon fill="none" stroke="black" points="306.5,-754 306.5,-777 482.5,-777 482.5,-754 306.5,-754"/>
<text text-anchor="start" x="362" y="-761.8" font-family="Times,serif" font-size="14.00">(16, 40, 80)</text>
<polygon fill="#90e9e4" stroke="none" points="306.5,-716 306.5,-754 382.5,-754 382.5,-716 306.5,-716"/>
<polygon fill="none" stroke="black" points="306.5,-716 306.5,-754 382.5,-754 382.5,-716 306.5,-716"/>
<text text-anchor="start" x="321.5" y="-738.8" font-family="Times,serif" font-size="14.00"> 5.0176 </text>
<text text-anchor="start" x="310.5" y="-723.8" font-family="Times,serif" font-size="14.00"> (MFLOPs) </text>
<polygon fill="#e8a7e0" stroke="none" points="382.5,-716 382.5,-754 442.5,-754 442.5,-716 382.5,-716"/>
<polygon fill="none" stroke="black" points="382.5,-716 382.5,-754 442.5,-754 442.5,-716 382.5,-716"/>
<text text-anchor="start" x="386.5" y="-738.8" font-family="Times,serif" font-size="14.00"> 3332.41 </text>
<text text-anchor="start" x="388.5" y="-723.8" font-family="Times,serif" font-size="14.00"> (MB/s) </text>
<polygon fill="#ffffb3" stroke="none" points="442.5,-716 442.5,-754 482.5,-754 482.5,-716 442.5,-716"/>
<polygon fill="none" stroke="black" points="442.5,-716 442.5,-754 482.5,-754 482.5,-716 442.5,-716"/>
<text text-anchor="start" x="446.5" y="-738.8" font-family="Times,serif" font-size="14.00"> 0.36 </text>
<text text-anchor="start" x="447.5" y="-723.8" font-family="Times,serif" font-size="14.00"> (ms)</text>
</g>
<!-- Input&#45;&gt;conv_1_relu -->
<g id="edge2" class="edge"><title>Input&#45;&gt;conv_1_relu</title>
<path fill="none" stroke="black" d="M320.632,-883.432C331.015,-865.942 347.701,-837.833 362.59,-812.754"/>
<polygon fill="black" stroke="black" points="365.673,-814.417 367.768,-804.031 359.653,-810.844 365.673,-814.417"/>
</g>
<!-- Output -->
<g id="node10" class="node"><title>Output</title>
<ellipse fill="none" stroke="black" cx="310.5" cy="-18" rx="79.8859" ry="18"/>
<text text-anchor="middle" x="310.5" y="-14.3" font-family="Times,serif" font-size="14.00">output: [160, 80, 2]</text>
</g>
<!-- data&#45;&gt;Output -->
<g id="edge8" class="edge"><title>data&#45;&gt;Output</title>
<path fill="none" stroke="black" d="M216.516,-583.544C229.806,-533.05 248.5,-448.893 248.5,-375 248.5,-375 248.5,-375 248.5,-245 248.5,-167.492 241.283,-143.791 270.5,-72 274.606,-61.9098 281.132,-52.047 287.731,-43.6186"/>
<polygon fill="black" stroke="black" points="290.592,-45.6502 294.267,-35.7131 285.197,-41.1896 290.592,-45.6502"/>
</g>
<!-- conv_2_relu -->
<g id="node5" class="node"><title>conv_2_relu</title>
<polygon fill="#a3a3a3" stroke="none" points="329.5,-649 329.5,-672 505.5,-672 505.5,-649 329.5,-649"/>
<polygon fill="none" stroke="black" points="329.5,-649 329.5,-672 505.5,-672 505.5,-649 329.5,-649"/>
<text text-anchor="start" x="383.5" y="-656.8" font-family="Times,serif" font-size="14.00">conv_2_relu</text>
<polygon fill="#dddddd" stroke="none" points="329.5,-626 329.5,-649 505.5,-649 505.5,-626 329.5,-626"/>
<polygon fill="none" stroke="black" points="329.5,-626 329.5,-649 505.5,-649 505.5,-626 329.5,-626"/>
<text text-anchor="start" x="385" y="-633.8" font-family="Times,serif" font-size="14.00">(32, 20, 40)</text>
<polygon fill="#2ed1c6" stroke="none" points="329.5,-588 329.5,-626 405.5,-626 405.5,-588 329.5,-588"/>
<polygon fill="none" stroke="black" points="329.5,-588 329.5,-626 405.5,-626 405.5,-588 329.5,-588"/>
<text text-anchor="start" x="348" y="-610.8" font-family="Times,serif" font-size="14.00"> 20.48 </text>
<text text-anchor="start" x="333.5" y="-595.8" font-family="Times,serif" font-size="14.00"> (MFLOPs) </text>
<polygon fill="#ecb4e5" stroke="none" points="405.5,-588 405.5,-626 465.5,-626 465.5,-588 405.5,-588"/>
<polygon fill="none" stroke="black" points="405.5,-588 405.5,-626 465.5,-626 465.5,-588 405.5,-588"/>
<text text-anchor="start" x="409.5" y="-610.8" font-family="Times,serif" font-size="14.00"> 2677.15 </text>
<text text-anchor="start" x="411.5" y="-595.8" font-family="Times,serif" font-size="14.00"> (MB/s) </text>
<polygon fill="#ffff8c" stroke="none" points="465.5,-588 465.5,-626 505.5,-626 505.5,-588 465.5,-588"/>
<polygon fill="none" stroke="black" points="465.5,-588 465.5,-626 505.5,-626 505.5,-588 465.5,-588"/>
<text text-anchor="start" x="469.5" y="-610.8" font-family="Times,serif" font-size="14.00"> 0.92 </text>
<text text-anchor="start" x="470.5" y="-595.8" font-family="Times,serif" font-size="14.00"> (ms)</text>
</g>
<!-- conv_1_relu&#45;&gt;conv_2_relu -->
<g id="edge3" class="edge"><title>conv_1_relu&#45;&gt;conv_2_relu</title>
<path fill="none" stroke="black" d="M402.739,-711.867C404.258,-703.543 405.86,-694.766 407.426,-686.185"/>
<polygon fill="black" stroke="black" points="410.889,-686.707 409.242,-676.241 404.003,-685.45 410.889,-686.707"/>
</g>
<!-- conv_3_relu -->
<g id="node6" class="node"><title>conv_3_relu</title>
<polygon fill="#a3a3a3" stroke="none" points="306.5,-521 306.5,-544 482.5,-544 482.5,-521 306.5,-521"/>
<polygon fill="none" stroke="black" points="306.5,-521 306.5,-544 482.5,-544 482.5,-521 306.5,-521"/>
<text text-anchor="start" x="360.5" y="-528.8" font-family="Times,serif" font-size="14.00">conv_3_relu</text>
<polygon fill="#dddddd" stroke="none" points="306.5,-498 306.5,-521 482.5,-521 482.5,-498 306.5,-498"/>
<polygon fill="none" stroke="black" points="306.5,-498 306.5,-521 482.5,-521 482.5,-498 306.5,-498"/>
<text text-anchor="start" x="362" y="-505.8" font-family="Times,serif" font-size="14.00">(64, 10, 20)</text>
<polygon fill="#2ed1c6" stroke="none" points="306.5,-460 306.5,-498 382.5,-498 382.5,-460 306.5,-460"/>
<polygon fill="none" stroke="black" points="306.5,-460 306.5,-498 382.5,-498 382.5,-460 306.5,-460"/>
<text text-anchor="start" x="325" y="-482.8" font-family="Times,serif" font-size="14.00"> 20.48 </text>
<text text-anchor="start" x="310.5" y="-467.8" font-family="Times,serif" font-size="14.00"> (MFLOPs) </text>
<polygon fill="#f6cdf1" stroke="none" points="382.5,-460 382.5,-498 442.5,-498 442.5,-460 382.5,-460"/>
<polygon fill="none" stroke="black" points="382.5,-460 382.5,-498 442.5,-498 442.5,-460 382.5,-460"/>
<text text-anchor="start" x="386.5" y="-482.8" font-family="Times,serif" font-size="14.00"> 1345.48 </text>
<text text-anchor="start" x="388.5" y="-467.8" font-family="Times,serif" font-size="14.00"> (MB/s) </text>
<polygon fill="#ffff88" stroke="none" points="442.5,-460 442.5,-498 482.5,-498 482.5,-460 442.5,-460"/>
<polygon fill="none" stroke="black" points="442.5,-460 442.5,-498 482.5,-498 482.5,-460 442.5,-460"/>
<text text-anchor="start" x="446.5" y="-482.8" font-family="Times,serif" font-size="14.00"> 0.98 </text>
<text text-anchor="start" x="447.5" y="-467.8" font-family="Times,serif" font-size="14.00"> (ms)</text>
</g>
<!-- conv_2_relu&#45;&gt;conv_3_relu -->
<g id="edge4" class="edge"><title>conv_2_relu&#45;&gt;conv_3_relu</title>
<path fill="none" stroke="black" d="M409.261,-583.867C407.742,-575.543 406.14,-566.766 404.574,-558.185"/>
<polygon fill="black" stroke="black" points="407.997,-557.45 402.758,-548.241 401.111,-558.707 407.997,-557.45"/>
</g>
<!-- conv_4_relu -->
<g id="node7" class="node"><title>conv_4_relu</title>
<polygon fill="#a3a3a3" stroke="none" points="302.5,-393 302.5,-416 474.5,-416 474.5,-393 302.5,-393"/>
<polygon fill="none" stroke="black" points="302.5,-393 302.5,-416 474.5,-416 474.5,-393 302.5,-393"/>
<text text-anchor="start" x="354.5" y="-400.8" font-family="Times,serif" font-size="14.00">conv_4_relu</text>
<polygon fill="#dddddd" stroke="none" points="302.5,-370 302.5,-393 474.5,-393 474.5,-370 302.5,-370"/>
<polygon fill="none" stroke="black" points="302.5,-370 302.5,-393 474.5,-393 474.5,-370 302.5,-370"/>
<text text-anchor="start" x="359.5" y="-377.8" font-family="Times,serif" font-size="14.00">(64, 5, 10)</text>
<polygon fill="#6fe1da" stroke="none" points="302.5,-332 302.5,-370 378.5,-370 378.5,-332 302.5,-332"/>
<polygon fill="none" stroke="black" points="302.5,-332 302.5,-370 378.5,-370 378.5,-332 302.5,-332"/>
<text text-anchor="start" x="321" y="-354.8" font-family="Times,serif" font-size="14.00"> 10.24 </text>
<text text-anchor="start" x="306.5" y="-339.8" font-family="Times,serif" font-size="14.00"> (MFLOPs) </text>
<polygon fill="#f9d6f5" stroke="none" points="378.5,-332 378.5,-370 434.5,-370 434.5,-332 378.5,-332"/>
<polygon fill="none" stroke="black" points="378.5,-332 378.5,-370 434.5,-370 434.5,-332 378.5,-332"/>
<text text-anchor="start" x="383.5" y="-354.8" font-family="Times,serif" font-size="14.00"> 850.01 </text>
<text text-anchor="start" x="382.5" y="-339.8" font-family="Times,serif" font-size="14.00"> (MB/s) </text>
<polygon fill="#ffff8a" stroke="none" points="434.5,-332 434.5,-370 474.5,-370 474.5,-332 434.5,-332"/>
<polygon fill="none" stroke="black" points="434.5,-332 434.5,-370 474.5,-370 474.5,-332 434.5,-332"/>
<text text-anchor="start" x="438.5" y="-354.8" font-family="Times,serif" font-size="14.00"> 0.95 </text>
<text text-anchor="start" x="439.5" y="-339.8" font-family="Times,serif" font-size="14.00"> (ms)</text>
</g>
<!-- conv_3_relu&#45;&gt;conv_4_relu -->
<g id="edge5" class="edge"><title>conv_3_relu&#45;&gt;conv_4_relu</title>
<path fill="none" stroke="black" d="M392.351,-455.867C391.959,-447.634 391.546,-438.957 391.141,-430.465"/>
<polygon fill="black" stroke="black" points="394.626,-430.064 390.654,-420.241 387.634,-430.397 394.626,-430.064"/>
</g>
<!-- fc1_relu -->
<g id="node8" class="node"><title>fc1_relu</title>
<polygon fill="#a3a3a3" stroke="none" points="289.5,-265 289.5,-288 465.5,-288 465.5,-265 289.5,-265"/>
<polygon fill="none" stroke="black" points="289.5,-265 289.5,-288 465.5,-288 465.5,-265 289.5,-265"/>
<text text-anchor="start" x="354.5" y="-272.8" font-family="Times,serif" font-size="14.00">fc1_relu</text>
<polygon fill="#dddddd" stroke="none" points="289.5,-242 289.5,-265 465.5,-265 465.5,-242 289.5,-242"/>
<polygon fill="none" stroke="black" points="289.5,-242 289.5,-265 465.5,-265 465.5,-242 289.5,-242"/>
<text text-anchor="start" x="345" y="-249.8" font-family="Times,serif" font-size="14.00">(1024, 1, 1)</text>
<polygon fill="#87e6e1" stroke="none" points="289.5,-204 289.5,-242 365.5,-242 365.5,-204 289.5,-204"/>
<polygon fill="none" stroke="black" points="289.5,-204 289.5,-242 365.5,-242 365.5,-204 289.5,-204"/>
<text text-anchor="start" x="304.5" y="-226.8" font-family="Times,serif" font-size="14.00"> 6.5536 </text>
<text text-anchor="start" x="293.5" y="-211.8" font-family="Times,serif" font-size="14.00"> (MFLOPs) </text>
<polygon fill="#f0beea" stroke="none" points="365.5,-204 365.5,-242 425.5,-242 425.5,-204 365.5,-204"/>
<polygon fill="none" stroke="black" points="365.5,-204 365.5,-242 425.5,-242 425.5,-204 365.5,-204"/>
<text text-anchor="start" x="369.5" y="-226.8" font-family="Times,serif" font-size="14.00"> 2122.55 </text>
<text text-anchor="start" x="371.5" y="-211.8" font-family="Times,serif" font-size="14.00"> (MB/s) </text>
<polygon fill="#ffff00" stroke="none" points="425.5,-204 425.5,-242 465.5,-242 465.5,-204 425.5,-204"/>
<polygon fill="none" stroke="black" points="425.5,-204 425.5,-242 465.5,-242 465.5,-204 425.5,-204"/>
<text text-anchor="start" x="429.5" y="-226.8" font-family="Times,serif" font-size="14.00"> 2.95 </text>
<text text-anchor="start" x="430.5" y="-211.8" font-family="Times,serif" font-size="14.00"> (ms)</text>
</g>
<!-- conv_4_relu&#45;&gt;fc1_relu -->
<g id="edge6" class="edge"><title>conv_4_relu&#45;&gt;fc1_relu</title>
<path fill="none" stroke="black" d="M384.56,-327.867C383.841,-319.634 383.084,-310.957 382.342,-302.465"/>
<polygon fill="black" stroke="black" points="385.806,-301.899 381.45,-292.241 378.833,-302.508 385.806,-301.899"/>
</g>
<!-- out -->
<g id="node9" class="node"><title>out</title>
<polygon fill="#a3a3a3" stroke="none" points="287.5,-137 287.5,-160 459.5,-160 459.5,-137 287.5,-137"/>
<polygon fill="none" stroke="black" points="287.5,-137 287.5,-160 459.5,-160 459.5,-137 287.5,-137"/>
<text text-anchor="start" x="364.5" y="-144.8" font-family="Times,serif" font-size="14.00">out</text>
<polygon fill="#dddddd" stroke="none" points="287.5,-114 287.5,-137 459.5,-137 459.5,-114 287.5,-114"/>
<polygon fill="none" stroke="black" points="287.5,-114 287.5,-137 459.5,-137 459.5,-114 287.5,-114"/>
<text text-anchor="start" x="351" y="-121.8" font-family="Times,serif" font-size="14.00">(1, 1, 1)</text>
<polygon fill="#b0f0ee" stroke="none" points="287.5,-76 287.5,-114 363.5,-114 363.5,-76 287.5,-76"/>
<polygon fill="none" stroke="black" points="287.5,-76 287.5,-114 363.5,-114 363.5,-76 287.5,-76"/>
<text text-anchor="start" x="296" y="-98.8" font-family="Times,serif" font-size="14.00"> 0.002048 </text>
<text text-anchor="start" x="291.5" y="-83.8" font-family="Times,serif" font-size="14.00"> (MFLOPs) </text>
<polygon fill="#ffe5fc" stroke="none" points="363.5,-76 363.5,-114 419.5,-114 419.5,-76 363.5,-76"/>
<polygon fill="none" stroke="black" points="363.5,-76 363.5,-114 419.5,-114 419.5,-76 363.5,-76"/>
<text text-anchor="start" x="372" y="-98.8" font-family="Times,serif" font-size="14.00"> 86.17 </text>
<text text-anchor="start" x="367.5" y="-83.8" font-family="Times,serif" font-size="14.00"> (MB/s) </text>
<polygon fill="#ffffc8" stroke="none" points="419.5,-76 419.5,-114 459.5,-114 459.5,-76 419.5,-76"/>
<polygon fill="none" stroke="black" points="419.5,-76 419.5,-114 459.5,-114 459.5,-76 419.5,-76"/>
<text text-anchor="start" x="423.5" y="-98.8" font-family="Times,serif" font-size="14.00"> 0.05 </text>
<text text-anchor="start" x="424.5" y="-83.8" font-family="Times,serif" font-size="14.00"> (ms)</text>
</g>
<!-- fc1_relu&#45;&gt;out -->
<g id="edge7" class="edge"><title>fc1_relu&#45;&gt;out</title>
<path fill="none" stroke="black" d="M376.067,-199.867C375.806,-191.634 375.53,-182.957 375.261,-174.465"/>
<polygon fill="black" stroke="black" points="378.752,-174.125 374.936,-164.241 371.755,-174.347 378.752,-174.125"/>
</g>
<!-- out&#45;&gt;Output -->
<g id="edge9" class="edge"><title>out&#45;&gt;Output</title>
<path fill="none" stroke="black" d="M344.397,-71.7292C338.431,-62.448 332.349,-52.9873 327.015,-44.6894"/>
<polygon fill="black" stroke="black" points="329.912,-42.7244 321.561,-36.2053 324.024,-46.5097 329.912,-42.7244"/>
</g>
<!-- Summary -->
<g id="node11" class="node"><title>Summary</title>
<polygon fill="#c60000" stroke="none" points="412.5,-935.5 412.5,-958.5 597.5,-958.5 597.5,-935.5 412.5,-935.5"/>
<polygon fill="none" stroke="black" points="412.5,-935.5 412.5,-958.5 597.5,-958.5 597.5,-935.5 412.5,-935.5"/>
<text text-anchor="start" x="477.5" y="-943.3" font-family="Times,serif" font-size="14.00">Summary</text>
<polygon fill="#e2e2e2" stroke="none" points="412.5,-912.5 412.5,-935.5 597.5,-935.5 597.5,-912.5 412.5,-912.5"/>
<polygon fill="none" stroke="black" points="412.5,-912.5 412.5,-935.5 597.5,-935.5 597.5,-912.5 412.5,-912.5"/>
<text text-anchor="start" x="452" y="-920.3" font-family="Times,serif" font-size="14.00">12 SHV Processors</text>
<polygon fill="#dadada" stroke="none" points="412.5,-889.5 412.5,-912.5 597.5,-912.5 597.5,-889.5 412.5,-889.5"/>
<polygon fill="none" stroke="black" points="412.5,-889.5 412.5,-912.5 597.5,-912.5 597.5,-889.5 412.5,-889.5"/>
<text text-anchor="start" x="441" y="-897.3" font-family="Times,serif" font-size="14.00">Inference time 6.20 ms</text>
<polygon fill="#e2e2e2" stroke="none" points="412.5,-866.5 412.5,-889.5 597.5,-889.5 597.5,-866.5 412.5,-866.5"/>
<polygon fill="none" stroke="black" points="412.5,-866.5 412.5,-889.5 597.5,-889.5 597.5,-866.5 412.5,-866.5"/>
<text text-anchor="start" x="428" y="-874.3" font-family="Times,serif" font-size="14.00">Bandwidth 1946.16 MB/sec</text>
<polygon fill="#dadada" stroke="none" points="412.5,-843.5 412.5,-866.5 597.5,-866.5 597.5,-843.5 412.5,-843.5"/>
<polygon fill="none" stroke="black" points="412.5,-843.5 412.5,-866.5 597.5,-866.5 597.5,-843.5 412.5,-843.5"/>
<text text-anchor="start" x="416.5" y="-851.3" font-family="Times,serif" font-size="14.00">This network is Compute bound</text>
</g>
</g>
</svg>
